Coordinates
version=1
nRows=16
nColumns=36
inDegrees=yes

Units are S.I. units (second, meters, Newtons, ...)
If the header above contains a line with 'inDegrees', this indicates whether rotational values are in degrees (yes) or radians (no).

endheader
time	pelvis_tilt	pelvis_list	pelvis_rotation	pelvis_tx	pelvis_ty	pelvis_tz	hip_flexion_r	hip_adduction_r	hip_rotation_r	knee_angle_r	knee_angle_r_beta	ankle_angle_r	subtalar_angle_r	mtp_angle_r	hip_flexion_l	hip_adduction_l	hip_rotation_l	knee_angle_l	knee_angle_l_beta	ankle_angle_l	subtalar_angle_l	mtp_angle_l	lumbar_extension	lumbar_bending	lumbar_rotation	arm_flex_r	arm_add_r	arm_rot_r	elbow_flex_r	pro_sup_r	arm_flex_l	arm_add_l	arm_rot_l	elbow_flex_l	pro_sup_l
      1.48333330	     -7.45351446	      1.54369239	      0.35376722	     -0.09145084	      1.25823972	     -0.09261848	      5.66227778	     -3.04711894	     -5.61450474	      1.71591012	      0.02994828	     12.60045063	      1.46584765	     -7.49999987	      5.04959350	      0.68090701	     -1.01652664	      0.17433839	      0.00304278	     10.10833995	     10.15673691	     -7.49999987	      2.09076283	     -1.10095659	     -6.01169066	      2.99099502	     -8.14683540	      8.87125918	     20.39323286	     68.28125870	      0.28231371	     -8.52760138	      3.82002420	     25.68103288	     65.31544045
      1.50000000	     -7.40000095	      1.54795080	      0.24773658	     -0.09185392	      1.25434260	     -0.09246891	      5.58122732	     -3.04691766	     -5.63403122	      1.73935187	      0.03035742	     12.62142201	      1.38915679	     -7.49999987	      4.96248269	      0.68185704	     -1.09256946	      0.17362201	      0.00303028	     10.21761251	     10.04828220	     -7.49999987	      2.17067888	     -1.05516919	     -5.98335852	      2.83000644	     -8.25604999	      8.86920266	     20.45136921	     68.27130952	      0.14304980	     -8.43035200	      3.82613080	     25.74712022	     65.30271327
      1.51666670	     -7.26396173	      1.50171406	      0.14187831	     -0.10335346	      1.25128342	     -0.08970811	      5.53261572	     -2.95813548	     -5.43213028	      1.77968782	      0.03106141	     12.52394007	      0.97005275	     -7.49999987	      4.91502121	      0.61531858	     -1.23703404	      0.17643703	      0.00307941	     10.45220841	     10.26758547	     -7.49999987	      1.89457222	     -0.99838775	     -5.67870707	      3.05806104	     -8.22291701	      8.83826963	     20.07187648	     68.17617993	      0.70512060	     -8.30754753	      3.66473373	     25.24101939	     65.18241994
      1.53333330	     -7.12888547	      1.54322338	      0.14499838	     -0.09163482	      1.26157426	     -0.09223494	      5.43231092	     -3.05462762	     -5.35331753	      1.97899481	      0.03453998	     12.72504202	      1.38244583	     -7.49999987	      4.74017125	      0.66471766	     -1.18600567	      0.17199800	      0.00300193	     10.38298377	     10.14577252	     -7.49999987	      1.68777179	     -1.02062879	     -5.46171952	      3.19298573	     -8.32091448	      9.45647792	     19.92692327	     68.88057766	      1.05844655	     -8.32095733	      4.28510324	     24.67187178	     65.70787092
      1.55000000	     -7.12977815	      1.53518726	      0.11207359	     -0.09181920	      1.25497318	     -0.09210517	      5.41510497	     -3.01620470	     -5.46785262	      1.95876576	      0.03418691	     12.76721334	      1.27089966	     -7.49999987	      4.73456120	      0.66985334	     -1.21700705	      0.17321089	      0.00302310	     10.37887467	     10.07739031	     -7.49999987	      1.80356540	     -1.03399439	     -5.30817946	      3.25610463	     -8.33072182	      9.44558089	     20.09990612	     68.85579297	      0.81284201	     -8.21151542	      4.28556272	     24.74307372	     65.68933695
      1.56666670	     -7.07567237	      1.60527959	      0.13058213	     -0.10299510	      1.25472339	     -0.08939063	      5.26882192	     -3.09546049	     -5.54457107	      1.86339531	      0.03252238	     12.73091005	      1.30633088	     -7.49999987	      4.75377674	      0.72178373	     -1.13682375	      0.17317099	      0.00302240	     10.36179854	      9.94439227	     -7.49999987	      1.70485882	     -1.16115976	     -5.20025864	      3.70997495	     -8.20247133	      9.50215530	     19.60377090	     69.26792389	      1.30178004	     -8.12710223	      4.22104258	     23.78975151	     65.99358496
      1.58333330	     -7.23514886	      1.65077732	      0.22419909	     -0.10355708	      1.25447546	     -0.08977386	      5.22006983	     -3.13897912	     -5.79602180	      1.69433714	      0.02957176	     12.64503785	      1.27267643	     -7.49999987	      4.98727497	      0.74140939	     -1.20396437	      0.17054256	      0.00297653	     10.39660101	     10.16019561	     -7.49999987	      1.80034907	     -1.22931902	     -5.31832437	      3.92356208	     -8.08147626	      9.35980118	     19.64013074	     69.01939995	      1.69511089	     -8.22255190	      4.18978881	     23.55270732	     65.94267761
      1.60000000	     -7.38065927	      1.60714449	      0.25869857	     -0.11450390	      1.25419251	     -0.08697983	      5.55234423	     -3.05799168	     -5.89151721	      1.64014730	      0.02862597	     12.65574271	      1.25023519	     -7.49999987	      5.32991676	      0.68323294	     -1.28888056	      0.17316060	      0.00302222	     10.54084718	     10.12050963	     -7.49999987	      1.57753945	     -1.21690636	     -5.34223316	      4.30833923	     -8.00315805	      9.37916363	     19.76422180	     69.05858488	      2.17709914	     -8.37925045	      4.18960444	     23.67865056	     65.98112882
      1.61666670	     -7.63358230	      1.66100272	      0.08650032	     -0.10295033	      1.25041735	     -0.08940252	      6.03651202	     -3.11184265	     -6.04477830	      1.93553106	      0.03378139	     12.82047381	      1.24578108	     -7.49999987	      5.65864228	      0.73361475	     -1.50011803	      0.17551876	      0.00306338	     10.45254755	     10.05662251	     -7.49999987	      1.65678962	     -1.23063191	     -5.17175159	      4.42344962	     -8.04579753	      9.67357898	     19.67323718	     68.55829291	      2.30868735	     -8.43255596	      4.47941857	     23.67869411	     65.90350036
      1.63333330	     -7.87423501	      1.69732440	     -0.02018726	     -0.10255501	      1.24701905	     -0.08928586	      6.35885855	     -3.13311141	     -6.16394453	      2.06150947	      0.03598013	     12.74819190	      0.95172621	     -7.49999987	      5.97550914	      0.75147712	     -1.72142193	      0.18060577	      0.00315217	     10.40717986	     10.16283594	     -7.49999987	      1.87550235	     -1.19790822	     -5.21795769	      4.65628133	     -8.09200363	     10.44149969	     19.58066565	     70.00526330	      2.53894437	     -8.44238230	      4.91016378	     23.32344284	     67.25265001
      1.65000000	     -8.00257110	      1.79342034	     -0.10491428	     -0.09118133	      1.24422440	     -0.09157943	      6.33998365	     -3.25190029	     -6.01252158	      2.11153133	      0.03685317	     12.51178587	      0.13034535	     -7.49999987	      6.06149475	      0.83963969	     -1.78711058	      0.18113667	      0.00316143	     10.30559657	     10.29990332	     -7.49999987	      2.10098752	     -1.29305047	     -5.18002719	      4.60120692	     -7.94857387	      9.99250503	     19.92542809	     68.92118541	      2.44055509	     -8.35826943	      4.39441823	     23.25109483	     66.44339494
      1.66666670	     -8.33905063	      1.89424139	     -0.21863188	     -0.09068389	      1.25094956	     -0.09131441	      6.50977557	     -3.36254942	     -6.05917353	      2.14259925	      0.03739541	     12.90991241	      0.42246989	     -7.49999987	      6.36533812	      0.89596538	     -2.00006851	      0.17957066	      0.00313410	     10.26602825	     10.64242584	     -7.49999987	      2.75609860	     -1.41553984	     -5.21687721	      4.05311260	     -8.00140532	      9.90152051	     20.04354171	     68.84566785	      2.09616859	     -8.32579820	      4.29672962	     23.34999092	     66.39451923
      1.68333330	     -8.25106998	      1.87062286	     -0.15067904	     -0.10242280	      1.24716172	     -0.08883521	      6.35857964	     -3.33686906	     -6.03201615	      2.00873929	      0.03505911	     12.65062187	     -0.08481008	     -7.49999987	      6.32621680	      0.87728470	     -1.78902075	      0.18393571	      0.00321028	     10.41482998	     10.41109683	     -7.49999987	      2.43451207	     -1.31774910	     -5.63359666	      4.38820080	     -7.87264442	      9.80573428	     19.53479902	     68.48098020	      2.59042305	     -8.31731975	      4.33308340	     22.58764224	     66.19007760
      1.70000000	     -8.60211081	      1.89130699	     -0.21927514	     -0.10153492	      1.25056962	     -0.08885821	      6.88325934	     -3.34865551	     -6.44790791	      2.22724746	      0.03887280	     13.06314424	      0.43940270	     -7.49999987	      6.78462553	      0.88468744	     -1.69822716	      0.19302309	      0.00336889	     10.32681611	     10.23879040	     -7.49999987	      2.82004944	     -1.31530354	     -5.68556957	      4.42803545	     -7.74594249	      9.43955950	     19.43390260	     67.35021880	      2.62802467	     -8.19183158	      4.10118217	     22.12659621	     65.39164073
      1.71666670	     -8.70974035	      1.91081787	     -0.48350957	     -0.11240220	      1.24635764	     -0.08597511	      7.27098383	     -3.31557069	     -6.35335869	      2.41572981	      0.04216244	     13.01973132	      0.16565415	     -7.49999987	      7.03070329	      0.86861713	     -1.78260686	      0.20497154	      0.00357743	     10.40776124	     10.22724948	     -7.49999987	      2.49595407	     -1.27444135	     -5.63975211	      4.82893134	     -7.73529255	      9.79812777	     19.64463864	     67.33915456	      2.83803703	     -8.39273185	      4.49720929	     22.38509540	     65.45357989
      1.73333330	     -8.91593030	      1.94631799	     -0.71026738	     -0.10054503	      1.25021315	     -0.08817957	      7.78060267	     -3.32130178	     -5.93493474	      2.62247925	      0.04577090	     12.82276258	     -0.21501459	     -7.49999987	      7.25779878	      0.89175364	     -1.62294719	      0.20845611	      0.00363825	     10.16074648	      9.80653747	     -7.49999987	      2.48528129	     -1.24942474	     -5.70291444	      4.81635393	     -7.71314509	      9.67378383	     19.84368455	     66.92384609	      2.72440434	     -8.45049877	      4.37370841	     22.51397593	     65.12986978
